<svg width="42.000000" height="32.000000" viewBox="0 0 42 32" fill="none" xmlns="http://www.w3.org/2000/svg" xmlns:xlink="http://www.w3.org/1999/xlink">
	<desc>
			Created with Pixso.
	</desc>
	<defs/>
	<path id="Vector" d="M0.13 4.14C0.39 2.96 1.04 1.91 1.97 1.16C2.9 0.41 4.06 -0.01 5.25 0L36.75 0C37.93 -0.01 39.09 0.41 40.02 1.16C40.95 1.91 41.6 2.96 41.86 4.14L21 17.1L0.13 4.14ZM0 7.19L0 26.13L15.23 16.64L0 7.19ZM17.74 18.21L0.5 28.95C0.92 29.86 1.6 30.63 2.44 31.17C3.28 31.71 4.25 32 5.25 32L36.75 32C37.74 32 38.71 31.71 39.55 31.17C40.39 30.63 41.07 29.86 41.49 28.94L24.24 18.21L21 20.22L17.74 18.21L17.74 18.21ZM26.76 16.65L42 26.13L42 7.19L26.76 16.64L26.76 16.65Z" fill="#25282B" fill-opacity="1.000000" fill-rule="evenodd"/>
</svg>
