<svg width="37.500000" height="37.500000" viewBox="0 0 37.5 37.5" fill="none" xmlns="http://www.w3.org/2000/svg" xmlns:xlink="http://www.w3.org/1999/xlink">
	<desc>
			Created with Pixso.
	</desc>
	<defs/>
	<path id="Vector" d="M24.75 18.75C24.75 19.93 24.39 21.09 23.73 22.08C23.07 23.07 22.14 23.83 21.04 24.29C19.94 24.74 18.74 24.86 17.57 24.63C16.41 24.4 15.34 23.83 14.5 22.99C13.66 22.15 13.09 21.08 12.86 19.92C12.63 18.75 12.75 17.55 13.2 16.45C13.66 15.35 14.42 14.42 15.41 13.76C16.4 13.1 17.56 12.75 18.75 12.75C20.34 12.75 21.86 13.38 22.99 14.5C24.11 15.63 24.74 17.15 24.75 18.75ZM37.5 10.5L37.5 27C37.49 29.78 36.38 32.45 34.42 34.42C32.45 36.38 29.78 37.49 27 37.5L10.5 37.5C7.71 37.49 5.04 36.38 3.07 34.42C1.11 32.45 0 29.78 0 27L0 10.5C0 7.71 1.11 5.04 3.07 3.07C5.04 1.11 7.71 0 10.5 0L27 0C29.78 0 32.45 1.11 34.42 3.07C36.38 5.04 37.49 7.71 37.5 10.5ZM27.75 18.75C27.75 16.96 27.22 15.22 26.23 13.74C25.24 12.26 23.83 11.11 22.19 10.43C20.54 9.75 18.74 9.57 16.99 9.92C15.24 10.27 13.64 11.12 12.38 12.38C11.12 13.64 10.27 15.24 9.92 16.99C9.57 18.74 9.75 20.54 10.43 22.19C11.11 23.83 12.26 25.24 13.74 26.23C15.22 27.22 16.96 27.75 18.75 27.75C21.13 27.74 23.42 26.79 25.11 25.11C26.79 23.42 27.74 21.13 27.75 18.75ZM30.75 9C30.75 8.55 30.61 8.12 30.37 7.75C30.12 7.38 29.77 7.09 29.36 6.92C28.94 6.75 28.49 6.7 28.06 6.79C27.62 6.88 27.22 7.09 26.9 7.4C26.59 7.72 26.38 8.12 26.29 8.56C26.2 8.99 26.25 9.44 26.42 9.86C26.59 10.27 26.87 10.62 27.24 10.87C27.62 11.11 28.05 11.25 28.5 11.25C29.09 11.25 29.66 11.01 30.09 10.59C30.51 10.16 30.75 9.59 30.75 9Z" fill="#25282B" fill-opacity="1.000000" fill-rule="nonzero"/>
</svg>
