<svg width="38.000000" height="38.000000" viewBox="0 0 38 38" fill="none" xmlns="http://www.w3.org/2000/svg" xmlns:xlink="http://www.w3.org/1999/xlink">
	<desc>
			Created with Pixso.
	</desc>
	<defs/>
	<path id="Vector" d="M0 2.72C0 1.21 1.24 0 2.79 0L35.2 0C36.75 0 38 1.21 38 2.72L38 35.27C38 36.78 36.75 38 35.2 38L2.79 38C1.24 38 0 36.78 0 35.27L0 2.72ZM11.73 31.81L11.73 14.65L6.03 14.65L6.03 31.81L11.73 31.81ZM8.88 12.3C10.87 12.3 12.11 10.99 12.11 9.34C12.07 7.65 10.87 6.37 8.92 6.37C6.97 6.37 5.7 7.66 5.7 9.34C5.7 10.99 6.93 12.3 8.85 12.3L8.88 12.3ZM20.54 31.81L20.54 22.22C20.54 21.71 20.58 21.2 20.73 20.83C21.14 19.81 22.08 18.75 23.66 18.75C25.72 18.75 26.55 20.32 26.55 22.63L26.55 31.81L32.25 31.81L32.25 21.96C32.25 16.69 29.44 14.24 25.68 14.24C22.66 14.24 21.3 15.9 20.54 17.07L20.54 17.13L20.5 17.13C20.52 17.11 20.53 17.09 20.54 17.07L20.54 14.65L14.84 14.65C14.91 16.26 14.84 31.81 14.84 31.81L20.54 31.81Z" fill="#25282B" fill-opacity="1.000000" fill-rule="nonzero"/>
</svg>
